<svg xmlns="http://www.w3.org/2000/svg" viewBox="0 0 120 120">
  <defs>
    <linearGradient id="grad1" x1="0%" y1="0%" x2="100%" y2="100%">
      <stop offset="0%" style="stop-color:#0A2F6C;stop-opacity:1" />
      <stop offset="100%" style="stop-color:#2D9CDB;stop-opacity:1" />
    </linearGradient>
  </defs>
  
  <!-- Outer circle with gradient -->
  <circle cx="60" cy="60" r="55" fill="url(#grad1)"/>
  
  <!-- Inner geometric pattern representing AI/Tech -->
  <path d="M 40 35 L 60 25 L 80 35 L 80 55 L 60 65 L 40 55 Z" fill="none" stroke="white" stroke-width="2" opacity="0.6"/>
  <path d="M 30 50 L 60 35 L 90 50 L 90 80 L 60 95 L 30 80 Z" fill="none" stroke="white" stroke-width="2.5"/>
  
  <!-- Central node -->
  <circle cx="60" cy="60" r="6" fill="white"/>
  <circle cx="60" cy="35" r="4" fill="white"/>
  <circle cx="60" cy="95" r="4" fill="white"/>
  <circle cx="30" cy="65" r="4" fill="white"/>
  <circle cx="90" cy="65" r="4" fill="white"/>
  
  <!-- Connection lines (neural network style) -->
  <line x1="60" y1="60" x2="60" y2="35" stroke="white" stroke-width="1.5" opacity="0.7"/>
  <line x1="60" y1="60" x2="30" y2="65" stroke="white" stroke-width="1.5" opacity="0.7"/>
  <line x1="60" y1="60" x2="90" y2="65" stroke="white" stroke-width="1.5" opacity="0.7"/>
  <line x1="60" y1="60" x2="60" y2="95" stroke="white" stroke-width="1.5" opacity="0.7"/>
</svg>
